<?xml version="1.0" encoding="UTF-8"?>
<svg id="Layer_1" xmlns="http://www.w3.org/2000/svg" version="1.1" viewBox="0 0 26.8 25.6">
  <!-- Generator: Adobe Illustrator 30.0.0, SVG Export Plug-In . SVG Version: 2.1.1 Build 123)  -->
  <defs>
    <style>
      .st0 {
        fill: #fff;
      }
    </style>
  </defs>
  <path id="heart-icon-empty" class="st0" d="M13.4,25.6L1,14.3C.4,13.7,0,12.9,0,12.1v-6c0-1,.5-1.9,1.3-2.4L5.7.5c1-.7,2.4-.7,3.4,0l4.3,3.2,4.4-3.2c1-.8,2.5-.7,3.5,0l4.2,3.1c.7.6,1.2,1.4,1.2,2.4v6.1c0,.8-.4,1.6-1,2.2l-12.4,11.3ZM2.5,5.5c-.2.1-.3.4-.3.6v6c0,.2,0,.4.2.5l10.9,9.9,10.9-9.9c.1-.1.2-.3.2-.5v-6.1c0-.2-.1-.4-.3-.6l-4.2-3.1c-.2-.2-.6-.2-.8,0l-5.8,4.1L7.9,2.4c-.2-.2-.6-.2-.8,0l-4.5,3.1Z"/>
</svg>